<svg width="219" height="121" viewBox="0 0 219 121" fill="none" xmlns="http://www.w3.org/2000/svg">
<path fill-rule="evenodd" clip-rule="evenodd" d="M29.4145 15.1858C37.2823 22.9692 42.7381 30.1949 46.8863 38.2412C51.4732 47.1383 54.5106 57.1316 57.3765 70.1753C55.5748 72.1598 53.5347 73.9238 51.3015 75.4223C46.1808 63.6081 41.2815 54.3609 35.0192 46.3666C28.5735 38.138 20.7488 31.3173 9.91027 24.362C15.0663 19.3384 21.8599 15.9875 29.4145 15.1858ZM34.8978 15.0573C41.6109 22.0822 46.5582 28.8756 50.4416 36.4082C54.8546 44.9681 57.8526 54.4052 60.5525 66.0735C63.9572 60.8819 65.9373 54.6722 65.9373 48C65.9373 30.4328 52.2106 16.0716 34.8978 15.0573ZM39.6409 80.3186C42.524 79.7237 45.2696 78.7528 47.8242 77.4593C42.6926 65.5689 37.9121 56.5462 31.8703 48.8332C25.6581 40.9027 18.0458 34.2738 7.18246 27.3659C3.1132 32.4385 0.51156 38.7389 0.0216064 45.6232C8.18344 49.4635 14.8621 53.7299 20.9073 58.9591C27.5853 64.7356 33.4339 71.6395 39.6409 80.3186ZM35.1455 80.9273C34.4157 80.9755 33.6794 81 32.9373 81C15.4006 81 1.0588 67.3208 0 50.0506C7.12184 53.5472 12.9793 57.3901 18.2904 61.9843C24.219 67.1126 29.5162 73.2188 35.1455 80.9273Z" fill="#FF0B0B"/>
<path d="M100.61 12.7081C104.743 13.5562 105.984 14.9364 107.465 18.0146L23.8808 106.999L22.4588 105.736L100.61 12.7081Z" fill="#EFEFEF"/>
<path d="M76.1323 1.52333C80.2205 0.482577 81.9395 1.18266 84.6155 3.30577L48.2554 119.85L46.4245 119.334L76.1323 1.52333Z" fill="#EFEFEF"/>
<path d="M107.129 60.864C107.257 61.5893 107.343 62.1013 107.385 62.4C107.471 62.656 107.513 63.0187 107.513 63.488C107.513 64.896 107.193 66.2187 106.553 67.456C105.956 68.6507 105.124 69.504 104.057 70.016C103.204 68.864 102.159 67.8827 100.921 67.072C99.684 66.2187 98.3187 65.536 96.8253 65.024C95.3747 64.4693 93.86 64.064 92.2813 63.808C90.7027 63.552 89.1667 63.424 87.6733 63.424C86.18 63.424 84.772 63.552 83.4493 63.808C82.1693 64.0213 81.0173 64.3413 79.9933 64.768C79.012 65.152 78.2227 65.6427 77.6253 66.24C77.0707 66.8373 76.7933 67.52 76.7933 68.288C76.9213 69.2267 77.4973 70.1867 78.5213 71.168C79.5453 72.1067 80.804 73.0453 82.2973 73.984C83.7907 74.88 85.4333 75.776 87.2253 76.672C89.06 77.568 90.852 78.4213 92.6013 79.232C94.7773 80.256 96.6547 81.216 98.2333 82.112C99.812 82.9653 101.113 83.9253 102.137 84.992C103.161 86.016 103.929 87.1893 104.441 88.512C104.953 89.8347 105.209 91.4347 105.209 93.312C105.209 95.488 104.847 97.536 104.121 99.456C103.396 101.333 102.329 102.976 100.921 104.384C99.556 105.792 97.892 106.88 95.9293 107.648C93.9667 108.459 91.7693 108.864 89.3373 108.864C86.948 108.864 84.3667 108.501 81.5933 107.776C78.82 107.051 76.2173 106.048 73.7853 104.768C71.396 103.531 69.3907 102.101 67.7693 100.48C66.1907 98.816 65.4013 97.0667 65.4013 95.232C65.4013 94.3787 65.636 93.2907 66.1053 91.968C66.6173 90.6453 67.5133 89.2587 68.7933 87.808C68.9213 89.088 69.604 90.6027 70.8413 92.352C72.1213 94.1013 74.02 95.7227 76.5373 97.216C78.884 98.5813 81.2947 99.584 83.7693 100.224C86.2867 100.821 88.6333 101.12 90.8093 101.12C93.1987 101.12 95.14 100.821 96.6333 100.224C98.1267 99.6267 99.3 98.9227 100.153 98.112C101.007 97.2587 101.604 96.4053 101.945 95.552C102.287 94.6987 102.479 94.016 102.521 93.504C102.479 92.6507 102.073 91.84 101.305 91.072C100.58 90.2613 99.5773 89.4933 98.2973 88.768C97.06 88 95.6093 87.232 93.9453 86.464C92.2813 85.696 90.5533 84.928 88.7613 84.16C86.0733 82.9653 83.748 81.856 81.7853 80.832C79.8653 79.7653 78.2653 78.6987 76.9853 77.632C75.748 76.5227 74.8307 75.3707 74.2333 74.176C73.6787 72.9813 73.4013 71.616 73.4013 70.08C73.4013 67.6907 74.1267 65.4293 75.5773 63.296C77.028 61.1627 79.1187 59.5413 81.8493 58.432C83.2147 57.8347 84.6653 57.408 86.2013 57.152C87.78 56.896 89.316 56.768 90.8093 56.768C93.6253 56.768 96.3773 57.152 99.0653 57.92C101.753 58.688 104.441 59.6693 107.129 60.864Z" fill="#FF0B0B"/>
<path d="M127.491 102.592C126.68 101.909 126.126 101.056 125.827 100.032C125.571 99.008 125.443 98.1333 125.443 97.408C125.443 96.512 125.55 95.744 125.763 95.104C125.592 95.104 125.208 95.4453 124.611 96.128C124.014 96.8107 123.352 97.6213 122.627 98.56C121.944 99.4987 121.262 100.416 120.579 101.312C119.896 102.208 119.384 102.869 119.043 103.296C118.488 103.893 117.955 104.363 117.443 104.704C116.974 105.045 116.59 105.237 116.291 105.28C115.608 105.237 114.883 105.088 114.115 104.832C113.39 104.619 112.686 104.299 112.003 103.872C111.363 103.445 110.787 102.933 110.275 102.336C109.806 101.739 109.486 101.056 109.315 100.288C109.315 99.0933 109.336 98.112 109.379 97.344C109.464 96.576 109.614 95.744 109.827 94.848C110.211 93.2267 110.766 91.392 111.491 89.344C112.259 87.296 113.134 85.2907 114.115 83.328C115.096 81.3227 116.184 79.4667 117.379 77.76C118.616 76.0107 119.918 74.6453 121.283 73.664C121.667 73.664 122.115 73.7067 122.627 73.792C123.139 73.8347 123.651 73.9413 124.163 74.112C124.718 74.2827 125.23 74.496 125.699 74.752C126.211 74.9653 126.638 75.264 126.979 75.648C126.595 76.0747 125.614 77.504 124.035 79.936C122.499 82.368 120.771 85.8667 118.851 90.432C118.638 90.9013 118.382 91.584 118.083 92.48C117.784 93.376 117.486 94.3147 117.187 95.296C116.888 96.2773 116.632 97.2373 116.419 98.176C116.248 99.1147 116.163 99.8613 116.163 100.416C116.163 100.757 116.206 101.013 116.291 101.184C116.419 101.355 116.526 101.483 116.611 101.568C117.251 101.312 118.062 100.608 119.043 99.456C120.024 98.304 121.39 96.5333 123.139 94.144C123.566 93.5467 124.056 92.864 124.611 92.096C125.208 91.328 125.806 90.5173 126.403 89.664C127 88.768 127.555 87.8507 128.067 86.912C128.622 85.9733 129.07 85.0347 129.411 84.096C129.582 83.584 129.795 82.9867 130.051 82.304C130.35 81.5787 130.691 80.832 131.075 80.064C131.502 79.296 131.971 78.528 132.483 77.76C133.038 76.9493 133.678 76.2027 134.403 75.52C134.958 75.52 135.555 75.584 136.195 75.712C136.835 75.84 137.432 76.0107 137.987 76.224C138.584 76.3947 139.096 76.608 139.523 76.864C139.95 77.0773 140.27 77.312 140.483 77.568C139.715 79.4453 138.862 81.3013 137.923 83.136C136.984 84.9707 136.11 86.784 135.299 88.576C134.488 90.3253 133.806 92.0747 133.251 93.824C132.696 95.5733 132.419 97.28 132.419 98.944C132.419 99.84 132.483 100.629 132.611 101.312C132.782 101.952 132.952 102.507 133.123 102.976C133.294 103.403 133.443 103.765 133.571 104.064C133.742 104.363 133.827 104.619 133.827 104.832C133.827 104.875 133.784 104.939 133.699 105.024C133.656 105.067 133.614 105.088 133.571 105.088C133.272 105.088 132.888 105.024 132.419 104.896C131.95 104.768 131.416 104.576 130.819 104.32C130.264 104.107 129.688 103.851 129.091 103.552C128.536 103.253 128.003 102.933 127.491 102.592Z" fill="#FF0B0B"/>
<path d="M163.788 78.528C163.745 79.3387 163.596 80.192 163.34 81.088C163.127 81.9413 162.849 82.7307 162.508 83.456C162.167 84.1387 161.804 84.7147 161.42 85.184C161.036 85.6533 160.673 85.888 160.332 85.888C159.863 85.8453 159.585 85.5253 159.5 84.928C159.5 84.8 159.543 84.608 159.628 84.352C159.756 84.0533 159.884 83.7333 160.012 83.392C160.14 83.0507 160.247 82.7093 160.332 82.368C160.46 82.0267 160.524 81.728 160.524 81.472C160.524 80.8747 160.375 80.384 160.076 80C159.82 79.5733 159.457 79.36 158.988 79.36C157.281 79.36 155.98 80.4267 155.084 82.56C154.188 84.6933 153.74 87.8293 153.74 91.968C153.74 92.3947 153.761 92.6507 153.804 92.736C154.7 92.6933 155.489 92.672 156.172 92.672C156.897 92.6293 157.601 92.608 158.284 92.608C158.327 92.6933 158.348 92.864 158.348 93.12C158.348 93.504 158.263 93.7813 158.092 93.952C157.111 94.1653 156.321 94.3573 155.724 94.528C155.169 94.656 154.743 94.784 154.444 94.912C154.145 95.04 153.953 95.1893 153.868 95.36C153.825 95.488 153.804 95.68 153.804 95.936C153.804 96.2773 153.804 96.6187 153.804 96.96C153.847 97.3013 153.868 97.728 153.868 98.24C153.868 101.824 152.887 104.704 150.924 106.88C149.004 109.056 146.316 110.315 142.86 110.656C142.262 110.613 141.644 110.443 141.004 110.144C140.364 109.845 139.745 109.461 139.148 108.992C138.593 108.523 138.103 107.989 137.676 107.392C137.249 106.837 136.951 106.261 136.78 105.664C136.78 104.043 137.121 102.507 137.804 101.056C138.486 99.5627 139.404 98.2613 140.556 97.152C141.751 96 143.137 95.0827 144.716 94.4C146.337 93.6747 148.087 93.248 149.964 93.12C149.964 92.0533 149.857 91.008 149.644 89.984C149.431 88.96 149.196 87.9787 148.94 87.04C148.727 86.0587 148.513 85.12 148.3 84.224C148.087 83.2853 147.98 82.368 147.98 81.472C147.98 80.32 148.215 79.1893 148.684 78.08C149.153 76.928 149.772 75.8827 150.54 74.944C151.308 73.9627 152.204 73.1307 153.228 72.448C154.252 71.7653 155.319 71.296 156.428 71.04C156.897 71.168 157.516 71.552 158.284 72.192C159.095 72.7893 159.884 73.472 160.652 74.24C161.42 75.008 162.103 75.7973 162.7 76.608C163.297 77.376 163.66 78.016 163.788 78.528ZM142.668 107.712C143.692 107.285 144.652 106.667 145.548 105.856C146.487 105.045 147.297 104.128 147.98 103.104C148.663 102.08 149.196 100.992 149.58 99.84C150.007 98.688 150.22 97.5573 150.22 96.448C149.367 96.576 148.428 96.9813 147.404 97.664C146.38 98.304 145.42 99.0933 144.524 100.032C143.628 100.928 142.881 101.867 142.284 102.848C141.687 103.829 141.388 104.683 141.388 105.408C141.388 106.347 141.815 107.115 142.668 107.712Z" fill="#FF0B0B"/>
<path d="M163.769 102.912C163.769 101.419 163.918 99.6693 164.217 97.664C164.516 95.616 164.942 93.44 165.497 91.136C166.094 88.832 166.777 86.4213 167.545 83.904C168.356 81.3867 169.252 78.8693 170.233 76.352C171.086 74.0907 172.067 71.808 173.177 69.504C174.329 67.2 175.566 64.9387 176.889 62.72C178.212 60.5013 179.577 58.3893 180.985 56.384C182.436 54.3787 183.886 52.544 185.337 50.88C186.02 50.88 186.745 50.9653 187.513 51.136C188.324 51.3067 189.092 51.5413 189.817 51.84C190.585 52.096 191.268 52.416 191.865 52.8C192.505 53.184 193.017 53.568 193.401 53.952C190.201 57.2373 187.321 60.5653 184.761 63.936C182.201 67.264 180.174 70.4 178.681 73.344C177.87 74.9653 177.124 76.48 176.441 77.888C175.801 79.296 175.203 80.704 174.649 82.112C174.094 83.4773 173.582 84.864 173.113 86.272C172.686 87.6373 172.281 89.088 171.897 90.624C180.089 80.1707 186.169 74.944 190.137 74.944C191.246 74.944 192.441 75.3067 193.721 76.032C195.001 76.7573 196.132 77.7387 197.113 78.976C195.79 80.4267 194.425 82.176 193.017 84.224C191.609 86.272 190.308 88.3413 189.113 90.432C187.961 92.48 187.001 94.4 186.233 96.192C185.508 97.9413 185.145 99.2427 185.145 100.096C185.145 100.523 185.209 100.821 185.337 100.992C185.465 101.12 185.742 101.184 186.169 101.184C186.809 101.184 187.321 101.099 187.705 100.928C188.089 100.757 188.324 100.672 188.409 100.672C188.622 101.013 188.75 101.248 188.793 101.376C188.836 101.504 188.857 101.611 188.857 101.696C188.857 101.867 188.601 102.123 188.089 102.464C187.577 102.763 186.958 103.083 186.233 103.424C185.55 103.723 184.868 104 184.185 104.256C183.502 104.512 182.99 104.64 182.649 104.64C182.222 104.64 181.796 104.512 181.369 104.256C180.942 104.043 180.558 103.744 180.217 103.36C179.918 102.976 179.662 102.549 179.449 102.08C179.278 101.611 179.193 101.12 179.193 100.608C179.193 99.968 179.364 99.0293 179.705 97.792C180.089 96.512 180.601 95.04 181.241 93.376C181.881 91.6693 182.649 89.8133 183.545 87.808C184.441 85.8027 185.401 83.7547 186.425 81.664C186.425 81.4933 186.34 81.408 186.169 81.408C186.041 81.408 185.7 81.5787 185.145 81.92C184.633 82.2613 184.142 82.6027 183.673 82.944C182.137 84.096 180.58 85.5253 179.001 87.232C177.465 88.896 175.95 90.7307 174.457 92.736C173.006 94.7413 171.62 96.8747 170.297 99.136C169.017 101.355 167.908 103.595 166.969 105.856C166.841 106.155 166.649 106.432 166.393 106.688C166.137 106.944 165.924 107.072 165.753 107.072C165.625 107.072 165.433 106.923 165.177 106.624C164.964 106.325 164.75 105.941 164.537 105.472C164.366 105.045 164.196 104.597 164.025 104.128C163.854 103.659 163.769 103.253 163.769 102.912Z" fill="#FF0B0B"/>
<path d="M196.959 99.712C196.959 99.328 196.981 98.8587 197.023 98.304C197.109 97.7067 197.237 96.9387 197.407 96C197.578 95.0187 197.791 93.8453 198.047 92.48C198.346 91.1147 198.709 89.472 199.135 87.552C199.221 87.1253 199.413 86.4427 199.711 85.504C200.01 84.5653 200.394 83.584 200.863 82.56C201.375 81.4933 201.973 80.4693 202.655 79.488C203.381 78.5067 204.234 77.7813 205.215 77.312C205.941 77.4827 206.901 77.9307 208.095 78.656C209.29 79.3387 210.314 80.2987 211.167 81.536C210.186 82.6453 209.354 83.7547 208.671 84.864C208.031 85.9733 207.434 87.1253 206.879 88.32C206.367 89.5147 205.877 90.752 205.407 92.032C204.981 93.312 204.49 94.656 203.935 96.064C203.466 97.2587 203.039 98.496 202.655 99.776C202.271 101.013 202.058 102.101 202.015 103.04C202.015 103.808 201.994 104.341 201.951 104.64C201.951 104.981 201.845 105.152 201.631 105.152C201.461 105.152 201.119 105.045 200.607 104.832C200.095 104.619 199.562 104.299 199.007 103.872C198.495 103.403 198.026 102.827 197.599 102.144C197.173 101.461 196.959 100.651 196.959 99.712ZM209.183 71.936C209.183 71.68 209.247 71.296 209.375 70.784C209.162 70.5707 208.97 70.2507 208.799 69.824C208.671 69.3973 208.607 69.0133 208.607 68.672C208.607 68.288 208.65 67.776 208.735 67.136C208.863 66.4533 209.013 65.728 209.183 64.96C209.354 64.192 209.567 63.4027 209.823 62.592C210.079 61.7387 210.335 60.9707 210.591 60.288C211.103 60.288 211.722 60.4373 212.447 60.736C213.215 60.992 213.983 61.3547 214.751 61.824C215.519 62.2507 216.223 62.7413 216.863 63.296C217.503 63.808 217.994 64.2987 218.335 64.768C217.866 65.2373 217.247 65.8987 216.479 66.752C215.711 67.5627 214.965 68.4373 214.239 69.376C213.514 70.272 212.853 71.1253 212.255 71.936C211.658 72.7467 211.274 73.3227 211.103 73.664C210.591 73.5787 210.143 73.3653 209.759 73.024C209.375 72.64 209.183 72.2773 209.183 71.936Z" fill="#FF0B0B"/>
</svg>
